<?xml version="1.0" encoding="utf-8"?>
<!-- Generator: Adobe Illustrator 26.0.1, SVG Export Plug-In . SVG Version: 6.00 Build 0)  -->
<svg version="1.1" id="Layer_1" xmlns="http://www.w3.org/2000/svg" xmlns:xlink="http://www.w3.org/1999/xlink" x="0px" y="0px"
	 viewBox="0 0 128 128" style="enable-background:new 0 0 128 128;" xml:space="preserve">
<style type="text/css">
	.st0{fill:#415AFF;}
	.st1{fill:#FFFFFF;}
</style>
<rect class="st0" width="128" height="128"/>
<path class="st1" d="M55.1,38.8c1.9-4.9,6.2-8.2,11-8.2c4.8,0,9.1,3.4,11,8.2h5.1c-2.1-8.1-8.6-14-16.1-14s-13.9,5.8-16.2,13.9
	L55.1,38.8L55.1,38.8L55.1,38.8z M98.4,46.7H32.5C31.1,62,30,77.4,29,92.8c0.2,1.9,1.5,5.3,7.1,5.7h58.7c5.5-0.4,6.8-3.8,7.1-5.7
	C101,77.4,99.8,62,98.4,46.7z M85.2,73.9c-1.4,4.6-4.2,8.5-8,11.3c-3.4,2.5-7.5,3.8-11.8,3.8h-0.1c-4.1-0.1-8.1-1.4-11.5-3.8
	c-3.8-2.8-6.6-6.8-8-11.3l-0.4-1.4h8.6l0.2,0.5c2,4.9,6.4,8.1,11.4,8.1h0.2c5-0.1,9.5-3.3,11.2-8.1l0.2-0.5h8.6L85.2,73.9L85.2,73.9
	z"/>
</svg>
